Coordinates
version=1
nRows=19
nColumns=24
inDegrees=yes

Units are S.I. units (second, meters, Newtons, ...)
Angles are in degrees.

endheader
time	pelvis_tilt	pelvis_list	pelvis_rotation	pelvis_tx	pelvis_ty	pelvis_tz	hip_flexion_r	hip_adduction_r	hip_rotation_r	knee_angle_r	ankle_angle_r	subtalar_angle_r	mtp_angle_r	hip_flexion_l	hip_adduction_l	hip_rotation_l	knee_angle_l	ankle_angle_l	subtalar_angle_l	mtp_angle_l	lumbar_extension	lumbar_bending	lumbar_rotation
      7.48000000	     49.88912155	      1.89181439	     -2.17777416	      0.75283442	      0.96295933	     -0.27487828	     16.66663288	    -14.30739967	      8.19940157	    -61.05840042	      6.56259565	     16.17318124	    -46.77114040	     15.94669267	     -6.53250257	     -1.75844432	    -60.93660397	      1.65798505	     13.78218747	    -36.23291046	      0.00000000	      0.00000000	      0.00000000
      7.49000000	     49.90405907	      1.92270990	     -2.16503292	      0.75271479	      0.96309652	     -0.27488965	     16.67501159	    -14.35509149	      8.19882566	    -60.96221283	      6.58075809	     16.04903375	    -47.70392935	     15.98516251	     -6.45159371	     -1.80345689	    -60.72463890	      1.63765534	     13.68099602	    -36.63622911	      0.00000000	      0.00000000	      0.00000000
      7.50000000	     49.89540313	      1.95021099	     -2.14773604	      0.75260920	      0.96331227	     -0.27484438	     16.76727272	    -14.35445213	      8.16315386	    -61.10583778	      6.75421691	     15.90584207	    -47.64687789	     16.09862929	     -6.35527484	     -1.85012853	    -60.73060251	      1.75074019	     13.62848426	    -36.35344752	      0.00000000	      0.00000000	      0.00000000
      7.51000000	     49.85486357	      1.97187672	     -2.13017580	      0.75247524	      0.96352883	     -0.27484383	     16.91948803	    -14.31110654	      8.09984618	    -61.46611023	      7.07965288	     15.77482224	    -46.59766498	     16.26428047	     -6.26019607	     -1.88995412	    -60.90116927	      1.98569876	     13.65100598	    -35.41578450	      0.00000000	      0.00000000	      0.00000000
      7.52000000	     49.79089818	      1.98520825	     -2.11540606	      0.75239446	      0.96358614	     -0.27491783	     17.10615649	    -14.24340530	      8.02495781	    -61.96878827	      7.52184771	     15.68928092	    -44.70371195	     16.45477436	     -6.18661126	     -1.91172826	    -61.15080454	      2.30052874	     13.76303069	    -33.96183865	      0.00000000	      0.00000000	      0.00000000
      7.53000000	     49.72501741	      1.98668414	     -2.10272592	      0.75247889	      0.96342970	     -0.27495206	     17.30624774	    -14.17427575	      7.95765970	    -62.50813508	      8.01909181	     15.67432193	    -42.23221078	     16.64264133	     -6.14580902	     -1.90849657	    -61.39317615	      2.63245681	     13.96094458	    -32.20685086	      0.00000000	      0.00000000	      0.00000000
      7.54000000	     49.67471737	      1.97606453	     -2.09048405	      0.75265066	      0.96322038	     -0.27488065	     17.49858220	    -14.11878933	      7.91149056	    -62.98344530	      8.49346679	     15.73932459	    -39.51906275	     16.80252316	     -6.13334985	     -1.88182527	    -61.56706122	      2.91241683	     14.22194366	    -30.39830278	      0.00000000	      0.00000000	      0.00000000
      7.55000000	     49.64255011	      1.95943860	     -2.08011536	      0.75274310	      0.96311139	     -0.27478305	     17.65739369	    -14.08010766	      7.88971969	    -63.32961869	      8.86548729	     15.87516229	    -36.90801989	     16.91563054	     -6.13406512	     -1.84017698	    -61.64555153	      3.08173788	     14.50826709	    -28.76893845	      0.00000000	      0.00000000	      0.00000000
      7.56000000	     49.62174535	      1.94573089	     -2.07531683	      0.75272405	      0.96309198	     -0.27474546	     17.75866795	    -14.05570871	      7.88791184	    -63.52555173	      9.07217076	     16.05624376	    -34.69289725	     16.97489455	     -6.13289321	     -1.79404172	    -61.63158180	      3.10708712	     14.77556071	    -27.49762165	      0.00000000	      0.00000000	      0.00000000
      7.57000000	     49.60748400	      1.94098853	     -2.07804616	      0.75268254	      0.96308441	     -0.27476114	     17.79196289	    -14.04400499	      7.89906835	    -63.58475793	      9.08378547	     16.24678617	    -33.07376605	     16.98566730	     -6.12238586	     -1.75189499	    -61.54764166	      2.98876645	     14.98319284	    -26.68509019	      0.00000000	      0.00000000	      0.00000000
      7.58000000	     49.60112128	      1.94586526	     -2.08664116	      0.75267293	      0.96306470	     -0.27477848	     17.76593422	    -14.04514675	      7.91666850	    -63.54053869	      8.91217785	     16.41001037	    -32.13382067	     16.96137782	     -6.10336749	     -1.71847310	    -61.42460323	      2.75937785	     15.10364103	    -26.34740478	      0.00000000	      0.00000000	      0.00000000
      7.59000000	     49.60658686	      1.95693369	     -2.09738500	      0.75266497	      0.96306882	     -0.27477691	     17.70389007	    -14.05802653	      7.93521414	    -63.43322920	      8.60639950	     16.51769484	    -31.83890738	     16.91760746	     -6.08131283	     -1.69476841	    -61.29198597	      2.47379387	     15.12812876	    -26.42599849	      0.00000000	      0.00000000	      0.00000000
      7.60000000	     49.62440610	      1.96951397	     -2.10690737	      0.75261977	      0.96312694	     -0.27477256	     17.63368258	    -14.07804188	      7.95008748	    -63.30127608	      8.23727464	     16.55698635	    -32.05757496	     16.86725142	     -6.06241295	     -1.67902718	    -61.17170654	      2.19467751	     15.06691605	    -26.81037618	      0.00000000	      0.00000000	      0.00000000
      7.61000000	     49.64839113	      1.97986277	     -2.11324350	      0.75254672	      0.96322698	     -0.27478032	     17.57772560	    -14.09781729	      7.95795961	    -63.17596339	      7.87753134	     16.53220446	    -32.59641654	     16.81818738	     -6.05136872	     -1.66828402	    -61.07639239	      1.97871833	     14.94455972	    -27.36785025	      0.00000000	      0.00000000	      0.00000000
      7.62000000	     49.66771011	      1.98562669	     -2.11551748	      0.75247791	      0.96334292	     -0.27479587	     17.54727226	    -14.11024100	      7.95771055	    -63.07910498	      7.58529930	     16.46125878	    -33.24352388	     16.77388686	     -6.05071358	     -1.65983864	    -61.01147972	      1.86717122	     14.79207247	    -27.97411799	      0.00000000	      0.00000000	      0.00000000
      7.63000000	     49.67329225	      1.98512945	     -2.11338037	      0.75243003	      0.96345291	     -0.27480906	     17.54237163	    -14.11174050	      7.95101079	    -63.02254959	      7.39580093	     16.36837802	    -33.81207138	     16.73553623	     -6.06082412	     -1.65192734	    -60.97931682	      1.88154069	     14.63857635	    -28.53888587	      0.00000000	      0.00000000	      0.00000000
      7.64000000	     49.66389302	      1.97749701	     -2.10747923	      0.75241627	      0.96349487	     -0.27481886	     17.55532833	    -14.10369527	      7.94167296	    -63.00885942	      7.32118843	     16.27617987	    -34.17640669	     16.70358374	     -6.08032643	     -1.64318256	    -60.98316464	      2.02327904	     14.50471325	    -29.02205331	      0.00000000	      0.00000000	      0.00000000
      7.65000000	     49.64751359	      1.96446388	     -2.10078941	      0.75246840	      0.96336505	     -0.27482805	     17.57453353	    -14.09109714	      7.93373678	    -63.03308049	      7.35493815	     16.20008409	    -34.29454842	     16.67765527	     -6.10687232	     -1.63143545	    -61.02855887	      2.27602154	     14.39914802	    -29.43794890	      0.00000000	      0.00000000	      0.00000000
      7.66000000	     49.63753106	      1.95181091	     -2.09858508	      0.75259365	      0.96307994	     -0.27482903	     17.58783855	    -14.07933087	      7.92935693	    -63.08505880	      7.47671319	     16.14677161	    -34.21351442	     16.65471068	     -6.13792172	     -1.61321275	    -61.11953765	      2.60947774	     14.31853885	    -29.84741240	      0.00000000	      0.00000000	      0.00000000
